<?xml version="1.0" standalone="no"?>
<!DOCTYPE svg PUBLIC "-//W3C//DTD SVG 20010904//EN"
 "http://www.w3.org/TR/2001/REC-SVG-20010904/DTD/svg10.dtd">
<svg version="1.0" xmlns="http://www.w3.org/2000/svg"
 width="1350.000000pt" height="1350.000000pt" viewBox="180 120 990 1110"
 preserveAspectRatio="xMidYMid meet">
<metadata>
Created by potrace 1.10, written by Peter Selinger 2001-2011
</metadata>
<g transform="translate(0.000000,1350.000000) scale(0.100000,-0.100000)"
fill="#2f3a44" stroke="none">
<path d="M7570 10772 c-53 -26 -74 -43 -108 -91 l-32 -44 0 -1549 c0 -1369 2
-1548 15 -1548 8 0 15 4 15 8 0 8 9 20 63 82 12 14 52 60 90 104 37 43 73 84
80 91 48 49 153 170 166 192 14 25 16 140 19 1171 l2 1142 1304 0 1304 0 6
-22 c8 -30 8 -2462 0 -2482 -8 -20 -28 -20 -44 -1 -11 13 -121 90 -172 120
-65 39 -264 132 -333 158 -97 35 -112 40 -150 46 -22 4 -50 13 -62 19 -12 7
-37 12 -57 12 -19 0 -47 5 -63 11 -31 12 -252 32 -353 32 -102 -1 -312 -20
-343 -32 -16 -6 -43 -11 -62 -11 -19 0 -46 -5 -62 -11 -15 -6 -44 -15 -63 -19
-86 -19 -201 -65 -353 -141 -115 -57 -117 -58 -187 -103 -169 -109 -375 -302
-503 -473 -43 -56 -77 -104 -77 -107 0 -3 -12 -24 -27 -48 -46 -70 -51 -80
-89 -158 -46 -95 -58 -124 -81 -182 -10 -28 -24 -48 -33 -48 -13 0 -85 32
-172 76 -14 8 -33 14 -41 14 -8 0 -28 7 -43 15 -16 8 -42 15 -57 15 -16 0 -37
5 -49 11 -16 9 -216 31 -278 31 -53 -1 -252 -23 -285 -32 -22 -6 -65 -18 -95
-27 -30 -9 -82 -29 -115 -44 -33 -16 -65 -29 -71 -29 -7 0 -17 -7 -24 -15 -20
-24 -34 -17 -53 28 -11 23 -26 58 -34 77 -8 19 -19 42 -24 50 -5 8 -12 22 -15
30 -14 34 -47 97 -65 125 -10 17 -23 39 -29 50 -39 78 -207 291 -307 390 -88
89 -251 225 -268 225 -4 0 -24 13 -44 28 -20 16 -43 32 -51 36 -8 3 -42 22
-75 41 -59 34 -121 65 -180 90 -16 6 -47 20 -68 29 -21 9 -44 16 -51 16 -8 0
-27 7 -42 15 -16 8 -39 15 -52 15 -13 0 -33 5 -44 11 -11 6 -44 15 -72 19 -28
5 -71 13 -96 18 -72 16 -247 32 -345 32 -106 0 -362 -26 -400 -40 -14 -5 -40
-10 -56 -10 -17 0 -40 -5 -52 -12 -12 -6 -38 -15 -57 -19 -33 -7 -54 -13 -145
-46 -77 -28 -229 -101 -280 -133 -16 -11 -37 -23 -45 -27 -71 -34 -253 -176
-356 -278 -127 -126 -190 -202 -289 -351 -60 -90 -60 -91 -116 -204 -72 -147
-96 -207 -106 -262 -3 -15 -10 -32 -17 -37 -6 -5 -87 -11 -181 -13 -176 -4
-188 -7 -246 -53 -53 -43 -69 -85 -69 -182 0 -83 2 -93 29 -130 58 -80 91 -93
266 -102 l120 -6 6 -115 c7 -133 25 -281 44 -360 39 -165 60 -233 90 -305 7
-16 23 -54 34 -83 41 -101 178 -343 211 -372 3 -3 32 -39 65 -80 79 -100 201
-220 307 -303 47 -37 89 -67 93 -67 4 0 24 -14 45 -30 21 -17 40 -30 43 -30 3
0 25 -13 49 -28 40 -27 146 -80 213 -108 17 -6 41 -17 55 -23 57 -24 140 -51
220 -71 25 -7 59 -16 75 -21 17 -6 68 -14 115 -19 47 -5 110 -13 140 -17 105
-15 504 9 592 35 18 6 53 15 78 22 82 20 118 32 215 68 49 18 105 42 125 54 8
4 22 11 30 14 8 3 22 10 30 15 8 5 22 12 30 15 8 3 22 10 30 15 8 5 24 14 35
19 11 6 34 19 50 30 17 11 40 25 53 31 12 7 22 16 22 21 0 4 5 8 11 8 28 0
261 197 359 305 64 70 214 270 230 305 5 14 19 39 29 55 25 39 57 104 108 222
9 21 21 47 26 58 6 11 14 36 18 55 4 19 12 49 17 65 23 68 42 144 42 171 0 16
7 51 15 78 11 37 15 104 15 277 l0 228 53 25 c28 15 59 30 67 35 41 22 142 61
180 68 14 2 56 11 94 20 77 18 243 14 331 -7 71 -17 172 -48 193 -59 9 -5 39
-20 65 -33 82 -39 97 -48 105 -66 5 -9 5 -67 1 -129 -4 -63 -3 -145 2 -190 5
-43 13 -112 18 -153 9 -79 15 -111 62 -295 6 -22 14 -44 20 -50 5 -5 9 -17 9
-27 0 -9 7 -34 16 -55 9 -21 22 -51 29 -68 47 -111 111 -226 197 -352 157
-231 434 -475 684 -604 44 -22 83 -44 88 -50 6 -5 19 -9 31 -9 12 0 26 -5 33
-12 11 -11 65 -34 107 -45 11 -2 34 -11 50 -18 44 -19 104 -37 150 -46 22 -4
60 -12 85 -18 165 -36 425 -50 565 -31 50 7 122 16 160 19 39 4 80 13 92 19
12 7 36 12 53 12 17 0 41 5 53 12 12 6 35 15 52 19 74 18 263 94 325 129 8 5
35 19 60 31 25 13 73 42 108 66 35 24 66 43 69 43 3 0 47 33 97 74 95 78 251
231 308 303 46 58 121 164 131 182 4 9 16 30 27 46 28 44 120 229 120 242 0 6
6 24 14 40 28 55 76 199 76 227 0 11 6 42 14 70 25 87 40 205 45 356 l6 145
110 7 c163 10 198 20 250 72 41 42 55 83 55 162 0 80 -12 113 -60 167 -46 53
-79 61 -270 67 -165 5 -175 6 -178 25 -3 19 -18 63 -46 130 -7 17 -45 95 -84
175 l-72 145 -3 1680 -2 1680 -22 35 c-30 48 -66 81 -111 99 -33 14 -211 16
-1622 18 -1463 1 -1588 0 -1620 -15z m-3080 -3028 c47 -8 99 -20 115 -26 17
-5 46 -14 65 -18 110 -25 285 -108 425 -202 184 -123 373 -331 465 -511 14
-27 35 -67 47 -90 12 -23 22 -49 22 -58 1 -8 8 -24 16 -35 8 -10 15 -27 15
-36 0 -10 6 -32 14 -50 33 -78 63 -249 72 -416 9 -152 -25 -391 -72 -500 -8
-18 -14 -39 -14 -47 0 -7 -6 -26 -14 -42 -8 -15 -29 -59 -47 -98 -98 -210
-270 -417 -461 -558 -43 -31 -80 -57 -82 -57 -3 0 -22 -12 -43 -26 -21 -14
-60 -37 -88 -50 -27 -14 -57 -29 -65 -33 -14 -9 -54 -24 -137 -55 -51 -18
-131 -40 -228 -63 -64 -14 -121 -18 -280 -18 -202 0 -272 9 -405 51 -25 8 -55
14 -67 14 -12 0 -24 4 -28 9 -3 5 -20 13 -38 16 -17 4 -43 13 -57 20 -14 7
-56 29 -95 47 -261 126 -523 384 -653 643 -17 33 -33 67 -36 75 -3 8 -10 22
-15 30 -9 14 -23 52 -50 130 -20 56 -41 150 -50 225 -26 199 -30 266 -22 312
5 26 13 86 17 133 3 47 11 96 16 110 5 14 13 45 18 70 4 25 14 61 21 80 21 61
66 167 80 190 5 8 14 26 19 39 12 28 132 211 152 232 7 8 45 48 83 89 39 41
98 99 132 128 73 62 250 182 268 182 7 0 18 7 25 15 7 8 20 15 29 15 9 0 22 5
29 12 12 12 58 31 122 50 19 5 40 14 45 18 6 4 24 10 40 13 68 13 143 30 185
42 69 20 404 19 510 -1z m4985 7 c3 -5 36 -13 73 -17 37 -3 78 -11 92 -17 14
-5 41 -13 60 -17 54 -12 197 -70 250 -101 8 -5 24 -13 35 -18 11 -5 37 -21 58
-35 21 -14 42 -26 47 -26 4 0 10 -3 12 -7 2 -5 19 -19 40 -33 142 -98 284
-245 387 -401 50 -77 141 -245 141 -262 0 -5 6 -23 13 -40 25 -59 39 -102 46
-142 4 -22 12 -56 19 -75 6 -19 16 -80 24 -135 39 -305 -37 -669 -192 -920
-13 -22 -33 -56 -44 -75 -81 -148 -305 -361 -497 -472 -154 -89 -248 -126
-449 -177 -135 -35 -546 -38 -624 -6 -20 8 -50 15 -68 15 -18 1 -44 7 -58 15
-14 8 -35 14 -47 15 -12 0 -34 6 -50 14 -15 8 -48 22 -73 31 -25 9 -52 21 -60
26 -8 4 -37 20 -65 34 -27 14 -63 35 -80 45 -16 11 -37 23 -45 27 -66 30 -294
243 -372 348 -129 174 -202 333 -268 585 -43 167 -31 561 21 715 6 17 15 44
19 60 20 69 74 195 113 260 6 11 25 43 41 70 87 146 230 301 383 416 51 38 94
69 97 69 3 0 22 12 43 26 21 14 47 30 58 35 11 5 27 13 35 18 26 17 150 71
161 71 6 0 25 6 42 14 45 19 112 36 182 46 33 5 74 14 90 19 39 12 402 14 410
2z"/>
<path d="M8401 9744 c-48 -22 -92 -66 -107 -110 -30 -87 -7 -203 50 -252 15
-12 49 -31 77 -42 48 -19 77 -20 790 -20 713 0 742 1 796 20 58 20 122 73 123
100 0 9 5 21 12 28 6 6 12 37 12 69 1 98 -51 178 -135 208 -65 22 -1566 21
-1618 -1z"/>
<path d="M8455 8901 c-84 -13 -138 -64 -167 -158 -16 -49 -16 -55 3 -108 21
-61 55 -105 105 -135 30 -19 55 -20 821 -20 l790 0 44 32 c68 48 99 105 99
178 0 76 -36 139 -105 183 l-50 32 -750 1 c-412 1 -768 -1 -790 -5z"/>
</g>
</svg>
